<svg width="24" height="25" viewBox="0 0 24 25" fill="none" xmlns="http://www.w3.org/2000/svg">
<path d="M21.2428 12.9371C21.4016 12.8489 21.5 12.6816 21.5 12.5C21.5 12.3184 21.4016 12.1511 21.2428 12.0629L18.9605 10.795C14.464 8.29689 9.72391 6.26488 4.81421 4.7306L4.14914 4.52276C3.99732 4.47532 3.83198 4.50294 3.70383 4.59716C3.57568 4.69138 3.5 4.84094 3.5 5V10.75C3.5 11.0159 3.70816 11.2353 3.97372 11.2493L4.98336 11.3025C7.44497 11.432 9.89156 11.7659 12.2979 12.3006L12.5362 12.3536C12.5892 12.3654 12.6122 12.387 12.625 12.4042C12.6411 12.426 12.6536 12.4594 12.6536 12.5C12.6536 12.5406 12.6411 12.5741 12.625 12.5958C12.6122 12.613 12.5892 12.6347 12.5362 12.6464L12.2979 12.6994C9.89157 13.2341 7.44496 13.568 4.98334 13.6976L3.97372 13.7507C3.70816 13.7647 3.5 13.9841 3.5 14.25V20C3.5 20.1591 3.57568 20.3086 3.70383 20.4029C3.83198 20.4971 3.99732 20.5247 4.14914 20.4772L4.81422 20.2694C9.72391 18.7351 14.464 16.7031 18.9605 14.205L21.2428 12.9371Z" fill="#FF7B29"/>
</svg>
