<svg width="100" height="22" viewBox="0 0 100 22" fill="none" xmlns="http://www.w3.org/2000/svg">
<g style="mix-blend-mode:multiply">
<path d="M7.18061 21.6812C5.85169 21.6812 4.66084 21.4655 3.60806 21.034C2.55529 20.6025 1.70961 19.964 1.07104 19.1183C0.449728 18.2726 0.121813 17.2544 0.0872961 16.0635H4.79891C4.86795 16.7366 5.10094 17.2544 5.49789 17.6168C5.89484 17.962 6.4126 18.1346 7.05117 18.1346C7.707 18.1346 8.22476 17.9879 8.60445 17.6945C8.98414 17.3838 9.17398 16.961 9.17398 16.426C9.17398 15.9772 9.01866 15.6062 8.708 15.3128C8.4146 15.0194 8.04354 14.7777 7.59482 14.5879C7.16335 14.3981 6.54204 14.1823 5.73088 13.9407C4.55729 13.5783 3.59943 13.2158 2.85731 12.8534C2.11519 12.491 1.47662 11.956 0.9416 11.2484C0.406581 10.5407 0.139072 9.61741 0.139072 8.47834C0.139072 6.78699 0.751755 5.4667 1.97712 4.51747C3.20249 3.55099 4.79891 3.06774 6.7664 3.06774C8.76841 3.06774 10.3821 3.55099 11.6075 4.51747C12.8328 5.4667 13.4887 6.79562 13.5749 8.50422H8.78566C8.75115 7.91743 8.53541 7.46007 8.13846 7.13216C7.74152 6.78699 7.23238 6.6144 6.61107 6.6144C6.07605 6.6144 5.64459 6.7611 5.31667 7.05449C4.98876 7.33063 4.8248 7.73621 4.8248 8.27123C4.8248 8.85803 5.10094 9.31538 5.65322 9.64329C6.20549 9.97121 7.06843 10.325 8.24202 10.7047C9.41561 11.1017 10.3648 11.4813 11.0897 11.8438C11.8318 12.2062 12.4704 12.7326 13.0054 13.4229C13.5404 14.1133 13.8079 15.0021 13.8079 16.0894C13.8079 17.1249 13.5404 18.0655 13.0054 18.9112C12.4876 19.7569 11.7283 20.43 10.7273 20.9305C9.72626 21.431 8.54404 21.6812 7.18061 21.6812ZM18.7586 5.55299C17.982 5.55299 17.3434 5.32863 16.8429 4.8799C16.3597 4.41392 16.118 3.84438 16.118 3.1713C16.118 2.48095 16.3597 1.91141 16.8429 1.46269C17.3434 0.996702 17.982 0.76371 18.7586 0.76371C19.518 0.76371 20.1393 0.996702 20.6225 1.46269C21.123 1.91141 21.3733 2.48095 21.3733 3.1713C21.3733 3.84438 21.123 4.41392 20.6225 4.8799C20.1393 5.32863 19.518 5.55299 18.7586 5.55299ZM20.9591 7.05449V21.5H16.5322V7.05449H20.9591ZM28.594 9.09965C29.0082 8.42656 29.6037 7.88291 30.3803 7.4687C31.1569 7.05449 32.0458 6.84739 33.0468 6.84739C34.2376 6.84739 35.3163 7.14942 36.2828 7.75347C37.2493 8.35752 38.0086 9.22046 38.5609 10.3423C39.1304 11.4641 39.4152 12.7671 39.4152 14.2514C39.4152 15.7356 39.1304 17.0473 38.5609 18.1863C38.0086 19.3081 37.2493 20.1797 36.2828 20.801C35.3163 21.4051 34.2376 21.7071 33.0468 21.7071C32.0285 21.7071 31.1397 21.5086 30.3803 21.1117C29.6209 20.6975 29.0255 20.1538 28.594 19.4807V21.5H24.1672V2.34288H28.594V9.09965ZM34.9107 14.2514C34.9107 13.1468 34.6 12.2839 33.9787 11.6626C33.3747 11.024 32.6239 10.7047 31.7265 10.7047C30.8463 10.7047 30.0955 11.024 29.4742 11.6626C28.8702 12.3011 28.5681 13.1727 28.5681 14.2772C28.5681 15.3818 28.8702 16.2534 29.4742 16.8919C30.0955 17.5305 30.8463 17.8498 31.7265 17.8498C32.6067 17.8498 33.3574 17.5305 33.9787 16.8919C34.6 16.2361 34.9107 15.3559 34.9107 14.2514ZM48.3132 21.7071C46.898 21.7071 45.6209 21.4051 44.4818 20.801C43.36 20.197 42.4711 19.334 41.8153 18.2122C41.1767 17.0904 40.8575 15.7788 40.8575 14.2772C40.8575 12.793 41.1854 11.49 41.8412 10.3682C42.497 9.22909 43.3945 8.35752 44.5336 7.75347C45.6726 7.14942 46.9498 6.84739 48.365 6.84739C49.7802 6.84739 51.0573 7.14942 52.1964 7.75347C53.3355 8.35752 54.2329 9.22909 54.8888 10.3682C55.5446 11.49 55.8725 12.793 55.8725 14.2772C55.8725 15.7615 55.536 17.0732 54.8629 18.2122C54.207 19.334 53.301 20.197 52.1446 20.801C51.0056 21.4051 49.7284 21.7071 48.3132 21.7071ZM48.3132 17.8757C49.1589 17.8757 49.8751 17.565 50.4619 16.9437C51.066 16.3224 51.368 15.4336 51.368 14.2772C51.368 13.1209 51.0746 12.2321 50.4878 11.6108C49.9183 10.9895 49.2107 10.6788 48.365 10.6788C47.502 10.6788 46.7858 10.9895 46.2163 11.6108C45.6467 12.2148 45.362 13.1037 45.362 14.2772C45.362 15.4336 45.6381 16.3224 46.1904 16.9437C46.7599 17.565 47.4675 17.8757 48.3132 17.8757ZM62.6479 9.46208C63.1656 8.66818 63.8128 8.04687 64.5895 7.59814C65.3661 7.13216 66.229 6.89917 67.1783 6.89917V11.5849H65.9615C64.857 11.5849 64.0286 11.8265 63.4763 12.3098C62.924 12.7757 62.6479 13.6042 62.6479 14.795V21.5H58.221V7.05449H62.6479V9.46208ZM71.5206 5.55299C70.7439 5.55299 70.1054 5.32863 69.6049 4.8799C69.1216 4.41392 68.88 3.84438 68.88 3.1713C68.88 2.48095 69.1216 1.91141 69.6049 1.46269C70.1054 0.996702 70.7439 0.76371 71.5206 0.76371C72.28 0.76371 72.9013 0.996702 73.3845 1.46269C73.885 1.91141 74.1353 2.48095 74.1353 3.1713C74.1353 3.84438 73.885 4.41392 73.3845 4.8799C72.9013 5.32863 72.28 5.55299 71.5206 5.55299ZM73.7211 7.05449V21.5H69.2942V7.05449H73.7211ZM76.049 14.2514C76.049 12.7671 76.3251 11.4641 76.8774 10.3423C77.4469 9.22046 78.2149 8.35752 79.1814 7.75347C80.1479 7.14942 81.2266 6.84739 82.4174 6.84739C83.4357 6.84739 84.3245 7.05449 85.0839 7.4687C85.8605 7.88291 86.4559 8.42656 86.8701 9.09965V7.05449H91.297V21.5H86.8701V19.4548C86.4387 20.1279 85.8346 20.6716 85.058 21.0858C84.2986 21.5 83.4098 21.7071 82.3915 21.7071C81.2179 21.7071 80.1479 21.4051 79.1814 20.801C78.2149 20.1797 77.4469 19.3081 76.8774 18.1863C76.3251 17.0473 76.049 15.7356 76.049 14.2514ZM86.8701 14.2772C86.8701 13.1727 86.5595 12.3011 85.9382 11.6626C85.3341 11.024 84.592 10.7047 83.7118 10.7047C82.8316 10.7047 82.0809 11.024 81.4596 11.6626C80.8555 12.2839 80.5535 13.1468 80.5535 14.2514C80.5535 15.3559 80.8555 16.2361 81.4596 16.8919C82.0809 17.5305 82.8316 17.8498 83.7118 17.8498C84.592 17.8498 85.3341 17.5305 85.9382 16.8919C86.5595 16.2534 86.8701 15.3818 86.8701 14.2772Z" fill="#263FA4"/>
<path d="M96.5707 21.7071C95.794 21.7071 95.1554 21.4827 94.6549 21.034C94.1717 20.568 93.9301 19.9985 93.9301 19.3254C93.9301 18.6351 94.1717 18.0569 94.6549 17.5909C95.1554 17.1249 95.794 16.8919 96.5707 16.8919C97.33 16.8919 97.9514 17.1249 98.4346 17.5909C98.9351 18.0569 99.1853 18.6351 99.1853 19.3254C99.1853 19.9985 98.9351 20.568 98.4346 21.034C97.9514 21.4827 97.33 21.7071 96.5707 21.7071Z" fill="#FF7B29"/>
</g>
</svg>
